<?xml version="1.0" encoding="utf-8"?>
<!-- Generator: Adobe Illustrator 19.1.0, SVG Export Plug-In . SVG Version: 6.00 Build 0)  -->
<svg version="1.1" id="Calque_1" xmlns="http://www.w3.org/2000/svg" xmlns:xlink="http://www.w3.org/1999/xlink" x="0px" y="0px"
	 viewBox="-330 571.3 138.7 138.7" style="enable-background:new -330 571.3 138.7 138.7;" xml:space="preserve">
<style type="text/css">
	.st0{fill:#40637D;}
	.st1{fill:#FFFFFF;}
</style>
<g>
	<path class="st0" d="M-330,640.7c0-38.3,31-69.3,69.3-69.3c38.3,0,69.3,31,69.3,69.3s-31,69.3-69.3,69.3
		C-299,710-330,679-330,640.7"/>
</g>
<g>
	<path class="st1" d="M-276.2,662.9h1.4v9.6h4.6v1.2h-6V662.9z"/>
	<path class="st1" d="M-267.1,663.8c0,0.5-0.3,0.9-0.9,0.9c-0.5,0-0.8-0.4-0.8-0.9c0-0.5,0.4-0.9,0.9-0.9
		C-267.5,662.9-267.1,663.3-267.1,663.8z M-268.7,673.7v-7.7h1.4v7.7H-268.7z"/>
	<path class="st1" d="M-265,668c0-0.8,0-1.5-0.1-2.1h1.2l0.1,1.3h0c0.4-0.7,1.3-1.5,2.6-1.5c1.1,0,2.7,0.6,2.7,3.3v4.6h-1.4v-4.5
		c0-1.2-0.5-2.3-1.8-2.3c-0.9,0-1.6,0.7-1.9,1.4c-0.1,0.2-0.1,0.4-0.1,0.7v4.7h-1.4V668z"/>
	<path class="st1" d="M-254.7,669.5L-254.7,669.5c0.2-0.3,0.5-0.6,0.7-0.9l2.3-2.7h1.7l-3,3.2l3.4,4.6h-1.7l-2.7-3.7l-0.7,0.8v2.9
		h-1.4v-11.4h1.4L-254.7,669.5L-254.7,669.5z"/>
	<path class="st1" d="M-248.8,672.2c0.4,0.3,1.2,0.6,1.9,0.6c1,0,1.5-0.5,1.5-1.2c0-0.7-0.4-1-1.4-1.4c-1.4-0.5-2-1.3-2-2.2
		c0-1.2,1-2.3,2.7-2.3c0.8,0,1.5,0.2,1.9,0.5l-0.4,1c-0.3-0.2-0.9-0.4-1.6-0.4c-0.8,0-1.3,0.5-1.3,1.1c0,0.6,0.5,0.9,1.5,1.3
		c1.3,0.5,2,1.2,2,2.3c0,1.4-1.1,2.3-2.9,2.3c-0.8,0-1.6-0.2-2.2-0.5L-248.8,672.2z"/>
</g>
<g>
	<g>
		<path class="st1" d="M-235.3,620.9l-11.3,11.3c-6.2,6.2-16.3,6.2-22.5,0c-1-1-1.7-2.1-2.4-3.2l5.2-5.2c0.2-0.3,0.6-0.4,0.8-0.6
			c0.4,1.2,1,2.4,2,3.4c3.1,3.1,8.2,3.1,11.3,0l11.3-11.3c3.1-3.1,3.1-8.2,0-11.3c-3.1-3.1-8.2-3.1-11.3,0l-4,4
			c-3.2-1.3-6.7-1.6-10.2-1.1l8.5-8.5c6.2-6.2,16.3-6.2,22.5,0C-229.1,604.6-229.1,614.7-235.3,620.9 M-265.1,639.5l-4,4
			c-3.1,3.1-8.2,3.1-11.3,0c-3.1-3.1-3.1-8.2,0-11.3l11.3-11.3c3.1-3.1,8.2-3.1,11.3,0c1,1,1.6,2.1,2,3.4c0.3-0.2,0.6-0.3,0.8-0.6
			l5.2-5.2c-0.7-1.1-1.4-2.2-2.4-3.2c-6.2-6.2-16.3-6.2-22.5,0l-11.3,11.3c-6.2,6.2-6.2,16.3,0,22.5c6.2,6.2,16.3,6.2,22.5,0
			l8.5-8.5C-258.4,641.1-261.9,640.7-265.1,639.5"/>
	</g>
</g>
</svg>
