<?xml version="1.0" encoding="utf-8"?>
<!-- Generator: Adobe Illustrator 19.1.0, SVG Export Plug-In . SVG Version: 6.00 Build 0)  -->
<svg version="1.1" id="Calque_1" xmlns="http://www.w3.org/2000/svg" xmlns:xlink="http://www.w3.org/1999/xlink" x="0px" y="0px"
	 viewBox="-330 571.3 138.7 138.7" style="enable-background:new -330 571.3 138.7 138.7;" xml:space="preserve">
<style type="text/css">
	.st0{fill:#559973;}
	.st1{fill:#FFFFFF;}
</style>
<g>
	<path class="st0" d="M-330,640.7c0-38.3,31-69.3,69.3-69.3c38.3,0,69.3,31,69.3,69.3s-31,69.3-69.3,69.3
		C-299,710-330,679-330,640.7"/>
</g>
<g>
	<path class="st1" d="M-284.8,660v10.8h-1.4V660H-284.8z"/>
	<path class="st1" d="M-282.5,665.1c0-0.8,0-1.5-0.1-2.1h1.2l0.1,1.3h0c0.4-0.7,1.3-1.5,2.6-1.5c1.1,0,2.7,0.6,2.7,3.3v4.6h-1.4
		v-4.5c0-1.2-0.5-2.3-1.8-2.3c-0.9,0-1.6,0.7-1.9,1.4c-0.1,0.2-0.1,0.4-0.1,0.7v4.7h-1.4V665.1z"/>
	<path class="st1" d="M-273,663l1.5,4.4c0.3,0.7,0.5,1.3,0.6,2h0c0.2-0.6,0.4-1.3,0.7-2l1.5-4.4h1.5l-3,7.7h-1.3l-2.9-7.7H-273z"/>
	<path class="st1" d="M-261.6,670.8l-0.1-1h0c-0.4,0.6-1.3,1.2-2.4,1.2c-1.6,0-2.4-1.1-2.4-2.2c0-1.9,1.7-2.9,4.7-2.9v-0.2
		c0-0.6-0.2-1.8-1.8-1.8c-0.7,0-1.5,0.2-2,0.6l-0.3-0.9c0.6-0.4,1.6-0.7,2.5-0.7c2.4,0,2.9,1.6,2.9,3.2v2.9c0,0.7,0,1.3,0.1,1.9
		L-261.6,670.8L-261.6,670.8L-261.6,670.8z M-261.8,666.8c-1.5,0-3.3,0.2-3.3,1.7c0,0.9,0.6,1.3,1.3,1.3c1,0,1.6-0.6,1.9-1.3
		c0-0.1,0.1-0.3,0.1-0.4L-261.8,666.8L-261.8,666.8z"/>
	<path class="st1" d="M-258.4,669.3c0.4,0.3,1.2,0.6,1.9,0.6c1,0,1.5-0.5,1.5-1.2c0-0.7-0.4-1-1.4-1.4c-1.4-0.5-2-1.3-2-2.2
		c0-1.2,1-2.3,2.7-2.3c0.8,0,1.5,0.2,1.9,0.5l-0.4,1c-0.3-0.2-0.9-0.4-1.6-0.4c-0.8,0-1.3,0.5-1.3,1.1c0,0.6,0.5,0.9,1.5,1.3
		c1.3,0.5,2,1.2,2,2.3c0,1.4-1.1,2.3-2.9,2.3c-0.9,0-1.6-0.2-2.2-0.5L-258.4,669.3z"/>
	<path class="st1" d="M-250.3,660.8c0,0.5-0.3,0.9-0.9,0.9c-0.5,0-0.8-0.4-0.8-0.9c0-0.5,0.4-0.9,0.9-0.9
		C-250.6,660-250.3,660.3-250.3,660.8z M-251.8,670.8V663h1.4v7.7H-251.8z"/>
	<path class="st1" d="M-247.5,663l1.5,4.4c0.3,0.7,0.5,1.3,0.6,2h0c0.2-0.6,0.4-1.3,0.7-2l1.5-4.4h1.5l-3,7.7h-1.3l-2.9-7.7H-247.5z
		"/>
	<path class="st1" d="M-239.6,667.1c0,1.9,1.2,2.7,2.7,2.7c1,0,1.6-0.2,2.1-0.4l0.2,1c-0.5,0.2-1.3,0.5-2.6,0.5
		c-2.4,0-3.8-1.6-3.8-3.9c0-2.3,1.4-4.2,3.6-4.2c2.5,0,3.2,2.2,3.2,3.6c0,0.3,0,0.5,0,0.7L-239.6,667.1L-239.6,667.1L-239.6,667.1z
		 M-235.5,666.1c0-0.9-0.4-2.3-2-2.3c-1.4,0-2,1.3-2.2,2.3H-235.5z"/>
</g>
<g>
	<path class="st1" d="M-283.7,685.3c0.4,0.3,1.2,0.6,1.9,0.6c1,0,1.5-0.5,1.5-1.2c0-0.7-0.4-1-1.4-1.4c-1.4-0.5-2-1.3-2-2.2
		c0-1.2,1-2.3,2.7-2.3c0.8,0,1.5,0.2,1.9,0.5l-0.4,1c-0.3-0.2-0.9-0.4-1.6-0.4c-0.8,0-1.3,0.5-1.3,1.1c0,0.6,0.5,0.9,1.5,1.3
		c1.3,0.5,2,1.2,2,2.3c0,1.4-1.1,2.3-2.9,2.3c-0.9,0-1.6-0.2-2.2-0.5L-283.7,685.3z"/>
	<path class="st1" d="M-277.1,681.5c0-1,0-1.8-0.1-2.5h1.3l0.1,1.3h0c0.6-0.9,1.5-1.5,2.8-1.5c1.9,0,3.3,1.6,3.3,3.9
		c0,2.8-1.7,4.2-3.5,4.2c-1,0-1.9-0.4-2.4-1.2h0v4.2h-1.4L-277.1,681.5L-277.1,681.5z M-275.7,683.6c0,0.2,0,0.4,0.1,0.6
		c0.3,1,1.1,1.6,2.1,1.6c1.5,0,2.4-1.2,2.4-3c0-1.6-0.8-2.9-2.3-2.9c-1,0-1.9,0.7-2.1,1.7c0,0.2-0.1,0.4-0.1,0.6L-275.7,683.6
		L-275.7,683.6z"/>
	<path class="st1" d="M-267.2,683.1c0,1.9,1.2,2.7,2.7,2.7c1,0,1.6-0.2,2.1-0.4l0.2,1c-0.5,0.2-1.3,0.5-2.6,0.5
		c-2.4,0-3.8-1.6-3.8-3.9c0-2.3,1.4-4.2,3.6-4.2c2.5,0,3.2,2.2,3.2,3.6c0,0.3,0,0.5,0,0.7L-267.2,683.1L-267.2,683.1L-267.2,683.1z
		 M-263.1,682.1c0-0.9-0.4-2.3-2-2.3c-1.4,0-2,1.3-2.2,2.3H-263.1z"/>
	<path class="st1" d="M-254.5,686.5c-0.4,0.2-1.2,0.4-2.2,0.4c-2.3,0-3.9-1.6-3.9-4c0-2.4,1.6-4.1,4.2-4.1c0.8,0,1.6,0.2,2,0.4
		l-0.3,1.1c-0.3-0.2-0.9-0.4-1.6-0.4c-1.8,0-2.7,1.3-2.7,2.9c0,1.8,1.2,2.9,2.7,2.9c0.8,0,1.3-0.2,1.7-0.4L-254.5,686.5z"/>
	<path class="st1" d="M-251.3,676.8c0,0.5-0.3,0.9-0.9,0.9c-0.5,0-0.8-0.4-0.8-0.9c0-0.5,0.4-0.9,0.9-0.9
		C-251.6,676-251.3,676.3-251.3,676.8z M-252.9,686.8V679h1.4v7.7H-252.9z"/>
	<path class="st1" d="M-248.3,683.1c0,1.9,1.2,2.7,2.7,2.7c1,0,1.6-0.2,2.1-0.4l0.2,1c-0.5,0.2-1.3,0.5-2.6,0.5
		c-2.4,0-3.8-1.6-3.8-3.9c0-2.3,1.4-4.2,3.6-4.2c2.5,0,3.2,2.2,3.2,3.6c0,0.3,0,0.5,0,0.7L-248.3,683.1L-248.3,683.1L-248.3,683.1z
		 M-244.2,682.1c0-0.9-0.4-2.3-2-2.3c-1.4,0-2,1.3-2.2,2.3H-244.2z"/>
	<path class="st1" d="M-241.3,685.3c0.4,0.3,1.2,0.6,1.9,0.6c1,0,1.5-0.5,1.5-1.2c0-0.7-0.4-1-1.4-1.4c-1.4-0.5-2-1.3-2-2.2
		c0-1.2,1-2.3,2.7-2.3c0.8,0,1.5,0.2,1.9,0.5l-0.4,1c-0.3-0.2-0.9-0.4-1.6-0.4c-0.8,0-1.3,0.5-1.3,1.1c0,0.6,0.5,0.9,1.5,1.3
		c1.3,0.5,2,1.2,2,2.3c0,1.4-1.1,2.3-2.9,2.3c-0.8,0-1.6-0.2-2.2-0.5L-241.3,685.3z"/>
</g>
<g>
	<g>
		<path class="st1" d="M-246.8,607.9c-6.1-6.3-16.1-6.5-22.4-0.4c-6.3,6.1-6.5,16.1-0.4,22.4c6.1,6.3,16.1,6.5,22.4,0.4
			C-240.9,624.2-240.7,614.2-246.8,607.9"/>
	</g>
	<g>
		<path class="st1" d="M-281.2,629c3.9-3.8,4-10.1,0.2-14c-3.8-3.9-10.1-4-14-0.2c-3.9,3.8-4,10.1-0.2,14
			C-291.5,632.7-285.2,632.8-281.2,629"/>
	</g>
	<g>
		<path class="st1" d="M-225.4,616c-2.8-2.9-7.5-3-10.5-0.2c-2.9,2.8-3,7.5-0.2,10.5c2.8,2.9,7.5,3,10.5,0.2
			C-222.6,623.6-222.5,618.9-225.4,616"/>
	</g>
	<g>
		<path class="st1" d="M-281.4,632.4c-2.9,2.8-3,7.5-0.2,10.5c2.8,2.9,7.5,3,10.5,0.2c2.9-2.8,3-7.5,0.2-10.5
			C-273.8,629.7-278.4,629.6-281.4,632.4"/>
	</g>
	<g>
		<path class="st1" d="M-264,639.8c-1.9,1.9-2,5-0.1,6.9c1.9,1.9,5,2,6.9,0.1c1.9-1.9,2-5,0.1-6.9C-259,637.9-262.1,637.9-264,639.8
			"/>
	</g>
	<g>
		<path class="st1" d="M-276.2,605.6c1.9-1.9,2-5,0.1-6.9c-1.9-1.9-5-2-6.9-0.1c-1.9,1.9-2,5-0.1,6.9
			C-281.2,607.5-278.1,607.5-276.2,605.6"/>
	</g>
	<g>
		<path class="st1" d="M-250.9,596.6c1.9-1.9,2-5,0.1-6.9c-1.9-1.9-5-2-6.9-0.1c-1.9,1.9-2,5-0.1,6.9S-252.9,598.5-250.9,596.6"/>
	</g>
	<g>
		<path class="st1" d="M-241.2,634.8c-1.9,1.9-2,5-0.1,6.9c1.9,1.9,5,2,6.9,0.1c1.9-1.9,2-5,0.1-6.9
			C-236.1,633-239.2,632.9-241.2,634.8"/>
	</g>
	<g>
		<path class="st1" d="M-229.3,640.3c-1,0.9-1,2.5-0.1,3.5c0.9,1,2.5,1,3.5,0.1c1-0.9,1-2.5,0.1-3.5
			C-226.7,639.4-228.3,639.3-229.3,640.3"/>
	</g>
	<g>
		<path class="st1" d="M-290.8,638.1c-1,0.9-1,2.5-0.1,3.5c0.9,1,2.5,1,3.5,0.1c1-0.9,1-2.5,0.1-3.5
			C-288.2,637.2-289.8,637.1-290.8,638.1"/>
	</g>
	<g>
		<path class="st1" d="M-249.5,601.6c0.9,1,2.5,1,3.5,0.1c1-0.9,1-2.5,0.1-3.5c-0.9-1-2.5-1-3.5-0.1
			C-250.4,599.1-250.4,600.6-249.5,601.6"/>
	</g>
</g>
</svg>
