<?xml version="1.0" encoding="utf-8"?>
<!-- Generator: Adobe Illustrator 19.1.0, SVG Export Plug-In . SVG Version: 6.00 Build 0)  -->
<svg version="1.1" id="Calque_1" xmlns="http://www.w3.org/2000/svg" xmlns:xlink="http://www.w3.org/1999/xlink" x="0px" y="0px"
	 viewBox="-330 571.3 138.7 138.7" style="enable-background:new -330 571.3 138.7 138.7;" xml:space="preserve">
<style type="text/css">
	.st0{fill:#7A9C2B;}
	.st1{fill:#FFFFFF;}
</style>
<g>
	<path class="st0" d="M-330,640.7c0-38.3,31-69.3,69.3-69.3c38.3,0,69.3,31,69.3,69.3s-31,69.3-69.3,69.3
		C-299,710-330,679-330,640.7"/>
</g>
<g>
	<path class="st1" d="M-280.8,649.4c0.7-0.1,1.7-0.2,2.7-0.2c1.5,0,2.4,0.3,3.1,0.9c0.5,0.5,0.8,1.2,0.8,2c0,1.4-0.9,2.4-2,2.8v0
		c0.8,0.3,1.3,1.1,1.6,2.2c0.4,1.5,0.6,2.5,0.8,3h-1.4c-0.2-0.3-0.4-1.2-0.7-2.6c-0.3-1.5-0.9-2-2.2-2.1h-1.3v4.7h-1.4
		C-280.8,660-280.8,649.4-280.8,649.4z M-279.4,654.3h1.4c1.5,0,2.4-0.8,2.4-2c0-1.4-1-2-2.5-2c-0.7,0-1.2,0.1-1.4,0.1V654.3z"/>
	<path class="st1" d="M-271.4,656.4c0,1.9,1.2,2.7,2.7,2.7c1,0,1.6-0.2,2.1-0.4l0.2,1c-0.5,0.2-1.3,0.5-2.6,0.5
		c-2.4,0-3.8-1.6-3.8-3.9c0-2.3,1.4-4.2,3.6-4.2c2.5,0,3.2,2.2,3.2,3.6c0,0.3,0,0.5,0,0.7L-271.4,656.4L-271.4,656.4z M-267.3,655.4
		c0-0.9-0.4-2.3-2-2.3c-1.4,0-2,1.3-2.2,2.3H-267.3z"/>
	<path class="st1" d="M-264.2,654.8c0-1,0-1.8-0.1-2.5h1.3l0.1,1.3h0c0.6-0.9,1.5-1.5,2.8-1.5c1.9,0,3.3,1.6,3.3,3.9
		c0,2.8-1.7,4.2-3.5,4.2c-1,0-1.9-0.4-2.4-1.2h0v4.2h-1.4V654.8z M-262.8,656.9c0,0.2,0,0.4,0.1,0.6c0.3,1,1.1,1.6,2.1,1.6
		c1.5,0,2.4-1.2,2.4-3c0-1.6-0.8-2.9-2.3-2.9c-1,0-1.9,0.7-2.1,1.7c0,0.2-0.1,0.4-0.1,0.6V656.9z"/>
	<path class="st1" d="M-248.1,656.1c0,2.9-2,4.1-3.9,4.1c-2.1,0-3.7-1.5-3.7-4c0-2.6,1.7-4.1,3.8-4.1
		C-249.6,652.1-248.1,653.7-248.1,656.1z M-254.2,656.2c0,1.7,1,3,2.4,3c1.3,0,2.4-1.3,2.4-3c0-1.3-0.7-3-2.3-3
		C-253.5,653.2-254.2,654.7-254.2,656.2z"/>
	<path class="st1" d="M-246.3,654.7c0-0.9,0-1.7-0.1-2.4h1.2l0,1.5h0.1c0.4-1,1.2-1.7,2.1-1.7c0.2,0,0.3,0,0.4,0v1.3
		c-0.1,0-0.3,0-0.5,0c-1,0-1.7,0.8-1.9,1.8c0,0.2-0.1,0.4-0.1,0.7v4.1h-1.4C-246.3,660-246.3,654.7-246.3,654.7z"/>
	<path class="st1" d="M-239.4,650v2.2h2v1.1h-2v4.2c0,1,0.3,1.5,1.1,1.5c0.4,0,0.6,0,0.8-0.1l0.1,1.1c-0.3,0.1-0.7,0.2-1.2,0.2
		c-0.7,0-1.2-0.2-1.5-0.6c-0.4-0.4-0.5-1.1-0.5-2v-4.2h-1.2v-1.1h1.2v-1.9L-239.4,650z"/>
</g>
<g>
	<path class="st1" d="M-287.4,676l-0.1-1h0c-0.4,0.6-1.3,1.2-2.4,1.2c-1.6,0-2.4-1.1-2.4-2.2c0-1.9,1.7-2.9,4.7-2.9v-0.2
		c0-0.6-0.2-1.8-1.8-1.8c-0.7,0-1.5,0.2-2,0.6l-0.3-0.9c0.6-0.4,1.6-0.7,2.5-0.7c2.4,0,2.9,1.6,2.9,3.2v2.9c0,0.7,0,1.3,0.1,1.9
		L-287.4,676L-287.4,676z M-287.6,672.1c-1.5,0-3.3,0.2-3.3,1.7c0,0.9,0.6,1.3,1.3,1.3c1,0,1.6-0.6,1.9-1.3c0-0.1,0.1-0.3,0.1-0.4
		L-287.6,672.1L-287.6,672.1z"/>
	<path class="st1" d="M-280.8,674.6c0.4,0.3,1.2,0.6,1.9,0.6c1,0,1.5-0.5,1.5-1.2c0-0.7-0.4-1-1.4-1.4c-1.4-0.5-2-1.3-2-2.2
		c0-1.2,1-2.3,2.7-2.3c0.8,0,1.5,0.2,1.9,0.5l-0.4,1c-0.3-0.2-0.9-0.4-1.6-0.4c-0.8,0-1.3,0.5-1.3,1.1c0,0.6,0.5,0.9,1.5,1.3
		c1.3,0.5,2,1.2,2,2.3c0,1.4-1.1,2.3-2.9,2.3c-0.8,0-1.6-0.2-2.2-0.5L-280.8,674.6z"/>
	<path class="st1" d="M-272.7,666.1c0,0.5-0.3,0.9-0.9,0.9c-0.5,0-0.8-0.4-0.8-0.9c0-0.5,0.4-0.9,0.9-0.9
		C-273,665.2-272.7,665.6-272.7,666.1z M-274.3,676v-7.7h1.4v7.7H-274.3z"/>
	<path class="st1" d="M-263.9,668.3c0,0.6-0.1,1.2-0.1,2.1v4.5c0,1.8-0.4,2.9-1.1,3.5c-0.8,0.7-1.8,0.9-2.8,0.9
		c-0.9,0-2-0.2-2.6-0.6l0.4-1.1c0.5,0.3,1.3,0.6,2.3,0.6c1.4,0,2.5-0.8,2.5-2.7v-0.9h0c-0.4,0.7-1.3,1.3-2.5,1.3
		c-1.9,0-3.3-1.6-3.3-3.8c0-2.6,1.7-4.1,3.5-4.1c1.3,0,2.1,0.7,2.4,1.3h0l0.1-1.2L-263.9,668.3L-263.9,668.3z M-265.3,671.3
		c0-0.2,0-0.4-0.1-0.6c-0.3-0.8-0.9-1.5-2-1.5c-1.3,0-2.3,1.1-2.3,2.9c0,1.5,0.8,2.8,2.3,2.8c0.9,0,1.6-0.5,2-1.4
		c0.1-0.2,0.1-0.5,0.1-0.8V671.3z"/>
	<path class="st1" d="M-261.6,664.7h1.4v4.8h0c0.2-0.4,0.6-0.8,1-1c0.4-0.2,0.9-0.4,1.4-0.4c1,0,2.7,0.6,2.7,3.3v4.6h-1.4v-4.5
		c0-1.2-0.5-2.3-1.8-2.3c-0.9,0-1.6,0.6-1.9,1.4c-0.1,0.2-0.1,0.4-0.1,0.7v4.7h-1.4L-261.6,664.7L-261.6,664.7z"/>
	<path class="st1" d="M-251,666v2.2h2v1.1h-2v4.2c0,1,0.3,1.5,1.1,1.5c0.4,0,0.6,0,0.8-0.1l0.1,1.1c-0.3,0.1-0.7,0.2-1.2,0.2
		c-0.7,0-1.2-0.2-1.5-0.6c-0.4-0.4-0.5-1.1-0.5-2v-4.2h-1.2v-1.1h1.2v-1.9L-251,666z"/>
	<path class="st1" d="M-245.8,666.1c0,0.5-0.3,0.9-0.9,0.9c-0.5,0-0.9-0.4-0.9-0.9c0-0.5,0.4-0.9,0.9-0.9
		C-246.2,665.2-245.8,665.6-245.8,666.1z M-247.4,676v-7.7h1.4v7.7H-247.4z"/>
	<path class="st1" d="M-243.7,670.4c0-0.8,0-1.5-0.1-2.1h1.2l0.1,1.3h0c0.4-0.7,1.3-1.5,2.6-1.5c1.1,0,2.7,0.6,2.7,3.3v4.6h-1.4
		v-4.5c0-1.2-0.5-2.3-1.8-2.3c-0.9,0-1.6,0.7-1.9,1.4c-0.1,0.2-0.1,0.4-0.1,0.7v4.7h-1.4V670.4z"/>
	<path class="st1" d="M-228.1,668.3c0,0.6-0.1,1.2-0.1,2.1v4.5c0,1.8-0.4,2.9-1.1,3.5c-0.8,0.7-1.8,0.9-2.8,0.9
		c-0.9,0-2-0.2-2.6-0.6l0.4-1.1c0.5,0.3,1.3,0.6,2.3,0.6c1.4,0,2.5-0.8,2.5-2.7v-0.9h0c-0.4,0.7-1.3,1.3-2.5,1.3
		c-1.9,0-3.3-1.6-3.3-3.8c0-2.6,1.7-4.1,3.5-4.1c1.3,0,2.1,0.7,2.4,1.3h0l0.1-1.2L-228.1,668.3L-228.1,668.3z M-229.6,671.3
		c0-0.2,0-0.4-0.1-0.6c-0.3-0.8-0.9-1.5-2-1.5c-1.3,0-2.3,1.1-2.3,2.9c0,1.5,0.8,2.8,2.3,2.8c0.9,0,1.6-0.5,2-1.4
		c0.1-0.2,0.1-0.5,0.1-0.8L-229.6,671.3L-229.6,671.3z"/>
</g>
<g>
	<g>
		<path class="st1" d="M-246.4,604.3c-1.5-0.4-5.1-1-5.1-1s-4.9-3.9-9.2-3.9c-4.3,0-9.2,3.9-9.2,3.9s-3.6,0.6-5.1,1
			c6.7,2.4,11.5,8.9,11.5,16.4c0,3.1-0.8,6-2.2,8.5h10c-1.4-2.5-2.2-5.4-2.2-8.5C-257.9,613.2-253.1,606.8-246.4,604.3"/>
	</g>
	<g>
		<path class="st1" d="M-281.9,605.1c-9,0-16.3,7.3-16.3,16.3c0,9,7.3,16.3,16.3,16.3c9,0,16.3-7.3,16.3-16.3
			S-272.9,605.1-281.9,605.1 M-281.9,631.7c-5.7,0-10.3-4.6-10.3-10.3c0-5.7,4.6-10.3,10.3-10.3c5.7,0,10.3,4.6,10.3,10.3
			C-271.6,627-276.2,631.7-281.9,631.7"/>
	</g>
	<g>
		<path class="st1" d="M-288.5,616.2c-2.2,2.9-2,6.9,0.3,9.5c-0.8-2.7-0.4-5.8,1.5-8.2c1.9-2.4,4.7-3.6,7.5-3.5
			C-282.4,612.5-286.3,613.3-288.5,616.2"/>
	</g>
	<g>
		<path class="st1" d="M-239.5,605.1c-9,0-16.3,7.3-16.3,16.3c0,9,7.3,16.3,16.3,16.3c9,0,16.3-7.3,16.3-16.3
			S-230.5,605.1-239.5,605.1 M-239.5,631.7c-5.7,0-10.3-4.6-10.3-10.3c0-5.7,4.6-10.3,10.3-10.3c5.7,0,10.3,4.6,10.3,10.3
			C-229.2,627-233.8,631.7-239.5,631.7"/>
	</g>
	<g>
		<path class="st1" d="M-242.1,614c2.8-0.1,5.7,1.1,7.5,3.5c1.9,2.4,2.3,5.5,1.5,8.2c2.3-2.7,2.5-6.6,0.3-9.5
			C-235,613.3-238.9,612.5-242.1,614"/>
	</g>
</g>
</svg>
